<?xml version="1.0" encoding="utf-8"?>
<!-- Generator: Adobe Illustrator 21.0.0, SVG Export Plug-In . SVG Version: 6.00 Build 0)  -->
<svg version="1.1" id="Layer_1" xmlns="http://www.w3.org/2000/svg" xmlns:xlink="http://www.w3.org/1999/xlink" x="0px" y="0px"
	 viewBox="0 0 256 256" style="enable-background:new 0 0 256 256;" xml:space="preserve">
<style type="text/css">
	.st0{fill:#FFCD29;}
	.st1{fill:#FCD770;}
	.st2{fill:#FFAE2C;}
	.st3{fill:#EA4647;}
	.st4{fill:#FC7783;}
	.st5{fill:#55ACD5;}
	.st6{fill:#6DCC6D;}
	.st7{fill:#231F20;}
</style>
<g id="Layer_15">
	<path class="st0" d="M205.1,99.4c1-5,5.4-9.7,5.4-15s-4.4-10-5.4-15c-1-5.1,1.2-11.2-0.7-15.9c-2-4.8-7.9-7.5-10.8-11.8
		c-2.9-4.3-3.1-10.8-6.8-14.4s-10.1-3.9-14.4-6.8c-4.3-2.9-7-8.8-11.8-10.8c-4.7-2-10.8,0.3-15.9-0.7c-5-1-9.7-5.4-15-5.4
		s-10,4.4-15,5.4c-5.1,1-11.2-1.2-15.9,0.7c-4.8,2-7.5,7.9-11.8,10.8c-4.3,2.9-10.8,3.1-14.4,6.8s-3.9,10.1-6.8,14.4
		c-2.9,4.3-8.8,7-10.8,11.8c-2,4.7,0.3,10.8-0.7,15.9c-1,5-5.4,9.7-5.4,15s4.4,10,5.4,15c1,5.1-1.2,11.2,0.7,15.9
		c2,4.8,7.9,7.5,10.8,11.8c2.9,4.3,3.1,10.8,6.8,14.4s10.1,3.9,14.4,6.8c4.3,2.9,7,8.8,11.8,10.8c4.7,2,10.8-0.3,15.9,0.7
		c5,1,9.7,5.4,15,5.4s10-4.4,15-5.4c5.1-1,11.2,1.2,15.9-0.7c4.8-2,7.5-7.9,11.8-10.8c4.3-2.9,10.8-3.1,14.4-6.8s3.9-10.1,6.8-14.4
		c2.9-4.3,8.8-7,10.8-11.8C206.3,110.6,204,104.5,205.1,99.4z"/>
	<path class="st1" d="M129.8,28.1c-31.1,0-56.3,25.2-56.3,56.3s25.2,56.3,56.3,56.3S186,115.5,186,84.4c0,0,0,0,0,0
		C186,53.3,160.8,28.2,129.8,28.1z"/>
	<path class="st2" d="M129.8,40c-24.5,0-44.4,19.9-44.4,44.4s19.9,44.4,44.4,44.4s44.4-19.9,44.4-44.4c0,0,0,0,0,0
		C174.1,59.9,154.3,40,129.8,40z"/>
	<path class="st0" d="M157.8,77c0.3-0.3,0.3-0.8,0-1.1c-0.1-0.1-0.3-0.2-0.4-0.2L139.1,73c-0.2,0-0.5-0.2-0.6-0.4l-8.2-16.5
		c-0.2-0.4-0.6-0.5-1-0.3c-0.1,0.1-0.3,0.2-0.3,0.3l-8.2,16.5c-0.1,0.2-0.3,0.4-0.6,0.4l-18.2,2.7c-0.4,0.1-0.7,0.4-0.6,0.8
		c0,0.2,0.1,0.3,0.2,0.4l13.2,12.9c0.2,0.2,0.3,0.4,0.2,0.7l-3.1,18.2c-0.1,0.4,0.2,0.8,0.6,0.9c0.2,0,0.3,0,0.5-0.1l16.3-8.6
		c0.2-0.1,0.5-0.1,0.7,0l16.3,8.6c0.4,0.2,0.8,0.1,1-0.3c0.1-0.1,0.1-0.3,0.1-0.5l-3.1-18.2c0-0.2,0-0.5,0.2-0.7L157.8,77z"/>
	<path class="st3" d="M172.4,148.2c-4.3,2.9-7,8.8-11.8,10.8c-4.7,2-10.8-0.3-15.9,0.7c-5,1-9.7,5.4-15,5.4s-10-4.4-15-5.4
		c-5.1-1-11.2,1.2-15.9-0.7c-4.8-2-7.5-7.9-11.8-10.8c-2.6-1.8-6-2.5-9.1-3.7v103.1c0,3.2,2.6,5.8,5.8,5.8c1.2,0,2.4-0.4,3.4-1.1
		l39.4-28.8c1.9-1.4,4.5-1.4,6.4,0l39.4,28.8c2.6,1.9,6.2,1.3,8.1-1.3c0.7-1,1.1-2.2,1.1-3.4V144.5
		C178.5,145.7,175,146.5,172.4,148.2z"/>
	<path class="st4" d="M172.4,148.2c-1,0.7-1.8,1.4-2.6,2.3v100l2.6,1.9c2.6,1.9,6.2,1.3,8.1-1.3c0.7-1,1.1-2.2,1.1-3.4V144.5
		C178.5,145.7,175,146.5,172.4,148.2z"/>
	<path class="st4" d="M87.1,148.2c-2.6-1.8-6-2.5-9.1-3.7v103.1c0,3.2,2.6,5.8,5.8,5.8c1.2,0,2.4-0.4,3.4-1.1l2.6-1.9v-99.9
		C89,149.7,88.1,148.9,87.1,148.2z"/>
	<path class="st5" d="M38,184.3h-1.8v-1.8c0-1.4-1.1-2.5-2.5-2.5s-2.5,1.1-2.5,2.5v1.8h-1.8c-1.4,0-2.5,1.1-2.5,2.5s1.1,2.5,2.5,2.5
		h1.8v1.8c0,1.4,1.1,2.5,2.5,2.5s2.5-1.1,2.5-2.5v-1.8H38c1.4,0,2.5-1.1,2.5-2.5S39.3,184.3,38,184.3L38,184.3z"/>
	<path class="st6" d="M51.5,215.3c-0.1-0.3-0.2-0.6-0.4-0.9c-0.1-0.1-0.2-0.3-0.3-0.4c-1-0.9-2.5-1-3.5,0c-0.1,0.1-0.2,0.2-0.3,0.4
		c-0.1,0.1-0.2,0.3-0.2,0.4c-0.1,0.2-0.1,0.3-0.1,0.5c-0.1,0.3-0.1,0.7,0,1c0,0.2,0.1,0.3,0.1,0.5c0.1,0.2,0.1,0.3,0.2,0.4
		c0.1,0.1,0.2,0.3,0.3,0.4c1,1,2.5,1,3.5,0.1c0,0,0,0,0,0c0.1-0.1,0.2-0.2,0.3-0.4c0.1-0.1,0.2-0.3,0.2-0.4c0.1-0.1,0.1-0.3,0.1-0.5
		C51.6,215.9,51.6,215.6,51.5,215.3L51.5,215.3z"/>
	<path class="st3" d="M201.7,2c0-0.2-0.1-0.3-0.1-0.5c-0.1-0.2-0.1-0.3-0.2-0.4c-0.1-0.1-0.2-0.3-0.3-0.4c-1-0.9-2.5-1-3.5,0
		c-0.1,0.1-0.2,0.2-0.3,0.4c-0.1,0.1-0.2,0.3-0.2,0.4c-0.1,0.2-0.1,0.3-0.1,0.5c0,0.2-0.1,0.3-0.1,0.5c0,0.2,0,0.3,0,0.5
		c0,0.2,0.1,0.3,0.1,0.5c0.1,0.2,0.1,0.3,0.2,0.4c0.1,0.1,0.2,0.3,0.3,0.4c1,1,2.5,1,3.5,0.1c0,0,0,0,0,0c0.1-0.1,0.2-0.2,0.3-0.4
		c0.1-0.1,0.2-0.3,0.2-0.4c0.1-0.1,0.1-0.3,0.1-0.5c0-0.2,0.1-0.3,0.1-0.5C201.8,2.3,201.8,2.2,201.7,2z"/>
	<path class="st0" d="M229.1,33.8c-4.1-0.8-7.2-4-7.9-8.1c0-0.1-0.1-0.2-0.2-0.2c-0.1,0-0.1,0.1-0.2,0.2c-0.8,4.1-4,7.2-8.1,7.9
		c-0.1,0-0.2,0.1-0.2,0.2c0,0.1,0.1,0.1,0.2,0.2c4.1,0.8,7.2,4,7.9,8.1c0,0.1,0.1,0.2,0.2,0.2c0.1,0,0.1-0.1,0.2-0.2
		c0.8-4.1,4-7.2,8.1-7.9c0.1,0,0.2-0.1,0.2-0.2C229.2,33.9,229.2,33.9,229.1,33.8z"/>
	<path class="st3" d="M63,163.4c-3.4-0.7-6.1-3.4-6.7-6.9c0-0.1-0.1-0.1-0.2-0.1c-0.1,0-0.1,0.1-0.1,0.1c-0.7,3.4-3.4,6.1-6.9,6.7
		c-0.1,0-0.1,0.1-0.1,0.2c0,0.1,0.1,0.1,0.1,0.1c3.4,0.7,6.1,3.4,6.7,6.9c0,0.1,0.1,0.1,0.2,0.1c0.1,0,0.1-0.1,0.1-0.1
		c0.7-3.4,3.4-6.1,6.9-6.7c0.1,0,0.1-0.1,0.1-0.2C63.1,163.5,63.1,163.5,63,163.4z"/>
	<path class="st7" d="M209.8,94.1c1.5-3,3.1-6.2,3.1-9.7s-1.6-6.7-3.1-9.7c-1-1.8-1.8-3.7-2.3-5.7c-0.3-2.1-0.3-4.3,0-6.4
		c0.2-3.3,0.5-6.8-0.8-10c-1.4-3.3-4-5.5-6.6-7.7c-1.7-1.3-3.1-2.8-4.4-4.5c-1.1-1.8-1.9-3.8-2.5-5.8c-1.1-3.2-2.1-6.5-4.6-9
		s-5.8-3.6-9-4.6c-2-0.6-4-1.4-5.8-2.5c-1.7-1.3-3.2-2.8-4.5-4.4c-2.2-2.6-4.5-5.2-7.7-6.6c-3.2-1.3-6.6-1.1-10-0.8
		c-2.1,0.3-4.3,0.3-6.4,0c-2-0.5-3.9-1.3-5.7-2.3c-3-1.5-6.2-3.1-9.7-3.1S123,2.8,120,4.3c-1.8,1-3.7,1.8-5.7,2.3
		c-2.1,0.3-4.3,0.3-6.4,0c-3.3-0.2-6.8-0.5-10,0.8c-3.3,1.4-5.5,4-7.7,6.6c-1.3,1.7-2.8,3.1-4.5,4.4c-1.8,1.1-3.8,1.9-5.8,2.5
		c-3.2,1-6.5,2.1-9,4.6s-3.6,5.8-4.6,9c-0.6,2-1.4,4-2.5,5.8c-1.3,1.7-2.8,3.2-4.4,4.5c-2.6,2.2-5.2,4.5-6.6,7.7
		c-1.3,3.2-1.1,6.6-0.8,10c0.3,2.1,0.3,4.3,0,6.4c-0.5,2-1.3,3.9-2.3,5.7c-1.5,3-3.1,6.2-3.1,9.7s1.6,6.7,3.1,9.7
		c1,1.8,1.8,3.7,2.3,5.7c0.3,2.1,0.3,4.3,0,6.4c-0.2,3.3-0.5,6.8,0.8,10c1.4,3.3,4,5.5,6.6,7.7c1.7,1.3,3.1,2.8,4.4,4.5
		c1.1,1.8,1.9,3.8,2.5,5.8c1.1,3.2,2.1,6.5,4.6,9s5.8,3.6,9,4.6c2,0.6,4,1.4,5.8,2.5c1.7,1.3,3.2,2.8,4.5,4.4
		c2.2,2.6,4.5,5.2,7.7,6.6c3.2,1.3,6.6,1.1,10,0.8c2.1-0.3,4.3-0.3,6.4,0c2,0.5,3.9,1.3,5.7,2.3c3,1.5,6.2,3.1,9.7,3.1
		c3.6,0,6.7-1.6,9.7-3.1c1.8-1,3.7-1.8,5.7-2.3c2.1-0.3,4.3-0.3,6.4,0c3.3,0.2,6.8,0.5,10-0.8c3.3-1.4,5.5-4,7.7-6.6
		c1.3-1.7,2.8-3.1,4.5-4.4c1.8-1.1,3.8-1.9,5.8-2.5c3.2-1,6.5-2.1,9-4.6s3.6-5.8,4.6-9c0.6-2,1.4-4,2.5-5.8c1.3-1.7,2.8-3.2,4.4-4.5
		c2.6-2.2,5.2-4.5,6.6-7.7c1.3-3.2,1.1-6.6,0.8-10c-0.3-2.1-0.3-4.3,0-6.4C208,97.9,208.8,95.9,209.8,94.1z M205.4,91.9
		c-1.2,2.2-2.2,4.6-2.8,7c-0.4,2.6-0.4,5.2-0.1,7.8c0.2,2.9,0.4,5.6-0.5,7.7c-0.9,2.2-3,4-5.2,5.9c-2,1.6-3.8,3.4-5.3,5.5
		c-1.3,2.2-2.4,4.6-3.1,7.1c-0.9,2.8-1.8,5.4-3.4,7s-4.2,2.5-7,3.4c-2.5,0.7-4.9,1.7-7.1,3.1c-2.1,1.5-3.9,3.3-5.5,5.3
		c-1.9,2.2-3.7,4.3-5.9,5.2c-2.1,0.9-4.8,0.7-7.7,0.4c-2.6-0.3-5.2-0.3-7.8,0.1c-2.5,0.6-4.8,1.5-7,2.8c-2.6,1.3-5.1,2.6-7.5,2.6
		s-4.9-1.3-7.5-2.6c-2.2-1.2-4.6-2.2-7-2.8c-1.2-0.2-2.4-0.3-3.7-0.3c-1.4,0-2.7,0.1-4.1,0.2c-2.9,0.2-5.6,0.4-7.7-0.5
		c-2.2-0.9-4-3-5.9-5.2c-1.6-2-3.4-3.8-5.5-5.3c-2.2-1.3-4.6-2.4-7.1-3.1c-2.8-0.9-5.4-1.8-7-3.4s-2.5-4.2-3.4-7
		c-0.7-2.5-1.7-4.9-3.1-7.1c-1.5-2.1-3.3-3.9-5.3-5.5c-2.2-1.9-4.3-3.7-5.2-5.8c-0.9-2.1-0.7-4.8-0.5-7.7c0.3-2.6,0.3-5.2-0.1-7.8
		c-0.6-2.5-1.5-4.8-2.8-7c-1.3-2.6-2.6-5.1-2.6-7.5s1.3-4.9,2.6-7.5c1.2-2.2,2.2-4.6,2.8-7c0.4-2.6,0.4-5.2,0.1-7.8
		c-0.2-2.9-0.4-5.6,0.5-7.7c0.9-2.2,3-4,5.2-5.8c2-1.6,3.8-3.4,5.3-5.5c1.3-2.2,2.4-4.6,3.1-7.1c0.9-2.8,1.8-5.4,3.4-7
		s4.2-2.5,7-3.4c2.5-0.7,4.9-1.7,7.1-3.1c2.1-1.5,3.9-3.3,5.5-5.3c1.9-2.2,3.7-4.3,5.9-5.2c2.1-0.9,4.8-0.7,7.7-0.5
		c2.6,0.3,5.2,0.3,7.8-0.1c2.5-0.6,4.8-1.5,7-2.8c2.6-1.3,5.1-2.6,7.5-2.6s4.9,1.3,7.5,2.6c2.2,1.2,4.6,2.2,7,2.8
		c2.6,0.4,5.2,0.4,7.8,0.1c2.9-0.2,5.6-0.4,7.7,0.5c2.2,0.9,4,3,5.9,5.2c1.6,2,3.4,3.8,5.5,5.3c2.2,1.3,4.6,2.4,7.1,3.1
		c2.8,0.9,5.4,1.8,7,3.4s2.5,4.2,3.4,7c0.7,2.5,1.7,4.9,3.1,7.1c1.5,2.1,3.3,3.9,5.3,5.5c2.2,1.9,4.3,3.7,5.2,5.8
		c0.9,2.1,0.7,4.8,0.4,7.7c-0.3,2.6-0.3,5.2,0.1,7.8c0.6,2.5,1.5,4.8,2.8,7c1.3,2.6,2.6,5.1,2.6,7.5S206.7,89.3,205.4,91.9z"/>
	<path class="st7" d="M183,142.5c-0.7-0.5-1.5-0.6-2.3-0.3c-0.9,0.3-1.8,0.6-2.7,0.9c-2.5,0.7-4.9,1.7-7.1,3.1
		c-1.1,0.8-2.1,1.6-3,2.6c-0.5,0.5-0.7,1.1-0.7,1.7v100c0,0.8,0.4,1.5,1,2l2.6,1.9c3.7,2.7,8.9,1.9,11.6-1.8c1-1.4,1.6-3.1,1.6-4.9
		V144.5C184.1,143.7,183.7,142.9,183,142.5z M179.1,247.7c0,1.8-1.5,3.3-3.3,3.3c-0.7,0-1.4-0.2-2-0.6l-1.6-1.2v-97.7
		c0.5-0.4,1-0.9,1.5-1.2l0,0c1.7-1,3.5-1.8,5.3-2.3L179.1,247.7z"/>
	<path class="st7" d="M183,142.5c-0.7-0.5-1.5-0.6-2.3-0.3c-0.9,0.3-1.8,0.6-2.7,0.9c-2.5,0.7-4.9,1.7-7.1,3.1l0,0
		c-2.1,1.5-3.9,3.3-5.5,5.3c-1.9,2.2-3.7,4.3-5.9,5.2c-2.1,0.9-4.8,0.7-7.7,0.4c-2.6-0.3-5.2-0.3-7.8,0.1c-2.5,0.6-4.8,1.5-7,2.8
		c-2.6,1.3-5.1,2.6-7.5,2.6s-4.9-1.3-7.5-2.6c-2.2-1.2-4.6-2.2-7-2.8c-2.6-0.4-5.2-0.4-7.8-0.1c-2.9,0.2-5.6,0.4-7.7-0.5
		c-2.2-0.9-4-3-5.9-5.2c-1.6-2-3.4-3.8-5.5-5.3c-2.2-1.3-4.6-2.4-7.1-3.1c-0.9-0.3-1.7-0.6-2.6-0.9c-1.3-0.5-2.7,0.2-3.2,1.5
		c-0.1,0.3-0.2,0.6-0.2,0.9v103.1c0,4.6,3.7,8.3,8.3,8.3c1.8,0,3.5-0.6,4.9-1.6l39.4-28.8c1-0.8,2.4-0.8,3.5,0l39.4,28.8
		c3.7,2.7,8.9,1.9,11.6-1.8c1-1.4,1.6-3.1,1.6-4.9V144.5C184.1,143.7,183.7,142.9,183,142.5z M179.1,247.7c0,1.8-1.5,3.3-3.3,3.3
		c-0.7,0-1.4-0.2-2-0.6l-39.4-28.8c-2.8-2.1-6.6-2.1-9.4,0l-39.4,28.8c-1.5,1.1-3.5,0.8-4.6-0.7c-0.4-0.6-0.6-1.3-0.6-2V148
		c1.8,0.5,3.6,1.3,5.3,2.3c1.7,1.3,3.2,2.8,4.5,4.4c2.2,2.6,4.5,5.2,7.7,6.6c3.2,1.3,6.6,1.1,10,0.8c2.1-0.3,4.3-0.3,6.4,0
		c2,0.5,3.9,1.3,5.7,2.3c3,1.5,6.2,3.1,9.7,3.1s6.7-1.6,9.7-3.1c1.8-1,3.7-1.8,5.7-2.3c2.1-0.3,4.3-0.3,6.4,0
		c3.3,0.2,6.8,0.5,10-0.8c3.3-1.4,5.5-4,7.7-6.6c1.3-1.7,2.8-3.1,4.5-4.4l0,0c1.7-1,3.5-1.8,5.3-2.3L179.1,247.7z"/>
	<path class="st7" d="M91.6,148.8c-0.9-1-2-1.9-3.1-2.7l0,0c-2.2-1.3-4.6-2.4-7.1-3.1c-0.9-0.3-1.7-0.6-2.6-0.9
		c-1.3-0.5-2.7,0.2-3.2,1.5c-0.1,0.3-0.2,0.6-0.2,0.9v103.1c0,4.6,3.7,8.3,8.3,8.3c1.8,0,3.5-0.6,4.9-1.6l2.6-1.9c0.6-0.5,1-1.2,1-2
		v-99.9C92.3,149.9,92,149.3,91.6,148.8z M87.3,249.2l-1.6,1.2c-1.5,1.1-3.5,0.8-4.6-0.7c-0.4-0.6-0.6-1.3-0.6-2V148
		c1.8,0.5,3.6,1.3,5.3,2.3c0.6,0.4,1.1,0.8,1.6,1.3L87.3,249.2z"/>
	<path class="st7" d="M129.8,25.6C97.3,25.6,71,51.9,71,84.4s26.3,58.8,58.8,58.8s58.8-26.3,58.8-58.8c0,0,0,0,0,0
		C188.5,52,162.2,25.7,129.8,25.6z M129.8,138.2c-29.7,0-53.8-24.1-53.8-53.8s24.1-53.8,53.8-53.8c29.7,0,53.8,24.1,53.8,53.8
		C183.5,114.1,159.4,138.1,129.8,138.2L129.8,138.2z"/>
	<path class="st7" d="M129.8,37.5c-25.9,0-46.9,21-46.9,46.9s21,46.9,46.9,46.9s46.9-21,46.9-46.9c0,0,0,0,0,0
		C176.6,58.5,155.7,37.5,129.8,37.5z M129.8,126.3c-23.2,0-41.9-18.8-41.9-41.9s18.8-41.9,41.9-41.9c23.2,0,41.9,18.8,41.9,41.9
		C171.6,107.5,152.9,126.3,129.8,126.3z"/>
	<path class="st7" d="M160.4,75.4c-0.4-1.2-1.4-2-2.6-2.2l-17.3-2.5L132.7,55l0,0c-0.8-1.6-2.7-2.3-4.4-1.5
		c-0.6,0.3-1.2,0.8-1.5,1.5l-7.8,15.7l-17.3,2.5c-1.8,0.3-3,1.9-2.7,3.7c0.1,0.7,0.4,1.4,0.9,1.9L112.5,91l-3,17.3
		c-0.3,1.8,0.9,3.4,2.6,3.8c0.7,0.1,1.4,0,2.1-0.3l15.5-8.2l15.5,8.2c1.6,0.8,3.5,0.2,4.4-1.4c0.3-0.6,0.4-1.4,0.3-2.1L147,91
		l12.5-12.2C160.4,77.9,160.8,76.6,160.4,75.4z M142.9,88c-0.8,0.7-1.1,1.8-0.9,2.9l2.5,14.7l-13.2-6.9c-0.9-0.5-2.1-0.5-3,0
		l-13.2,6.9l2.5-14.7c0.2-1.1-0.2-2.1-0.9-2.9L106,77.6l14.7-2.1c1.1-0.2,2-0.8,2.4-1.8l6.6-13.3l6.6,13.4c0.5,1,1.4,1.6,2.4,1.8
		l14.7,2.1L142.9,88z"/>
</g>
</svg>
