<svg xmlns="http://www.w3.org/2000/svg" width="128" height="128" viewBox="0 0 128 128">
  <title>RATING</title>
  <g>
    <g>
      <path d="M98.09,29.792H29.9A5.708,5.708,0,0,0,24.2,35.5V79.834A5.709,5.709,0,0,0,29.9,85.542h25.76L64,98.208,72.33,85.542H98.09a5.708,5.708,0,0,0,5.708-5.708V35.5A5.707,5.707,0,0,0,98.09,29.792Z" fill="#fd4b4a"/>
      <g>
        <path d="M47.144,45.088l3.261,6.606a1.3,1.3,0,0,0,.982.714l7.291,1.06a1.3,1.3,0,0,1,.723,2.225l-5.275,5.143a1.306,1.306,0,0,0-.376,1.155L55,69.252A1.305,1.305,0,0,1,53.1,70.628L46.581,67.2a1.309,1.309,0,0,0-1.214,0l-6.521,3.429a1.306,1.306,0,0,1-1.894-1.376L38.2,61.991a1.308,1.308,0,0,0-.375-1.155l-5.276-5.143a1.3,1.3,0,0,1,.723-2.225l7.291-1.06a1.3,1.3,0,0,0,.982-.714L44.8,45.088A1.3,1.3,0,0,1,47.144,45.088Z" fill="#ff9001"/>
        <path d="M83.19,45.088l3.261,6.606a1.3,1.3,0,0,0,.982.714l7.291,1.06a1.3,1.3,0,0,1,.723,2.225l-5.275,5.143a1.306,1.306,0,0,0-.376,1.155l1.246,7.261a1.3,1.3,0,0,1-1.893,1.376L82.627,67.2a1.309,1.309,0,0,0-1.214,0l-6.521,3.429A1.306,1.306,0,0,1,73,69.252l1.246-7.261a1.306,1.306,0,0,0-.375-1.155l-5.276-5.143a1.3,1.3,0,0,1,.723-2.225l7.291-1.06a1.3,1.3,0,0,0,.982-.714l3.261-6.606A1.3,1.3,0,0,1,83.19,45.088Z" fill="#ff9001"/>
      </g>
      <path d="M65.574,40.746l4.395,8.905a1.757,1.757,0,0,0,1.324.962l9.827,1.428a1.758,1.758,0,0,1,.974,3l-7.11,6.932a1.756,1.756,0,0,0-.506,1.556l1.678,9.787a1.758,1.758,0,0,1-2.551,1.854l-8.79-4.621a1.759,1.759,0,0,0-1.636,0l-8.79,4.621a1.758,1.758,0,0,1-2.551-1.854l1.678-9.787a1.758,1.758,0,0,0-.5-1.556L45.9,55.04a1.758,1.758,0,0,1,.975-3L56.7,50.613a1.757,1.757,0,0,0,1.324-.962l4.4-8.905A1.759,1.759,0,0,1,65.574,40.746Z" fill="#ffd92d"/>
    </g>
    <g>
      <path d="M47.5,31.542h1.125a1.75,1.75,0,0,0,0-3.5H47.5a1.75,1.75,0,0,0,0,3.5Z" fill="#001c5b"/>
      <path d="M98.093,28.042H55.25a1.75,1.75,0,0,0,0,3.5H98.093a3.962,3.962,0,0,1,3.958,3.957v23a1.75,1.75,0,0,0,3.5,0v-23A7.465,7.465,0,0,0,98.093,28.042Z" fill="#001c5b"/>
      <path d="M103.8,63.083a1.75,1.75,0,0,0-1.75,1.75v1.334a1.75,1.75,0,0,0,3.5,0V64.833A1.751,1.751,0,0,0,103.8,63.083Z" fill="#001c5b"/>
      <path d="M103.8,70.917a1.75,1.75,0,0,0-1.75,1.75v7.167a3.963,3.963,0,0,1-3.958,3.958H72.333a1.748,1.748,0,0,0-1.461.788L64,95.024l-3.662-5.565a1.75,1.75,0,1,0-2.923,1.924l5.123,7.787a1.75,1.75,0,0,0,2.924,0l7.815-11.878H98.093a7.466,7.466,0,0,0,7.458-7.458V72.667A1.751,1.751,0,0,0,103.8,70.917Z" fill="#001c5b"/>
      <path d="M55.667,83.792H29.907a3.963,3.963,0,0,1-3.958-3.958V35.5a3.962,3.962,0,0,1,3.958-3.957H40.5a1.75,1.75,0,0,0,0-3.5H29.907A7.465,7.465,0,0,0,22.449,35.5V79.834a7.466,7.466,0,0,0,7.458,7.458h25.76a1.75,1.75,0,0,0,0-3.5Z" fill="#001c5b"/>
      <path d="M33.021,51.736a3.055,3.055,0,0,0-1.693,5.21l5.109,4.98L35.23,68.957a3.051,3.051,0,0,0,4.433,3.22l6.522-3.429a1.75,1.75,0,0,0-1.629-3.1l-5.724,3.009,1.094-6.374a3.05,3.05,0,0,0-.879-2.7l-4.63-4.513,6.4-.93a3.051,3.051,0,0,0,2.3-1.671l2.862-5.8L47.7,50.153l-1.069.156a3.509,3.509,0,0,0-1.945,5.985L51.8,63.232,50.116,73.02a3.5,3.5,0,0,0,5.091,3.7L64,72.1l8.789,4.621a3.509,3.509,0,0,0,5.091-3.7L77.572,71.2l4.451-2.34,6.314,3.32a3.055,3.055,0,0,0,4.433-3.22L91.523,61.7a1.75,1.75,0,1,0-3.449.592l1.094,6.372L83.444,65.65a3.055,3.055,0,0,0-2.842,0l-3.651,1.92-.743-4.345,7.111-6.932a3.509,3.509,0,0,0-1.945-5.984l-1.07-.156,1.719-3.483,2.861,5.8a3.05,3.05,0,0,0,2.3,1.673l6.4.93-1.848,1.8a1.75,1.75,0,0,0,2.444,2.506l2.493-2.43a3.055,3.055,0,0,0-1.693-5.21L87.92,50.71l-3.157-6.4a3.039,3.039,0,0,0-2.739-1.7h0a3.039,3.039,0,0,0-2.74,1.7l-2.62,5.309-5.122-.746-4.395-8.9h0a3.508,3.508,0,0,0-6.292,0l-4.4,8.909-5.115.743-2.62-5.311a3.039,3.039,0,0,0-2.74-1.7h0a3.04,3.04,0,0,0-2.739,1.7l-3.157,6.4Zm23.935.609a3.509,3.509,0,0,0,2.642-1.92L64,41.508l.007.013,4.394,8.9a3.509,3.509,0,0,0,2.642,1.92l9.832,1.442-7.111,6.932a3.508,3.508,0,0,0-1.009,3.1l1.666,9.8L65.633,69a3.5,3.5,0,0,0-3.266,0l-8.8,4.611,1.679-9.788a3.51,3.51,0,0,0-1.009-3.1l-7.1-6.946Z" fill="#001c5b"/>
    </g>
  </g>
</svg>
